<svg xmlns:inkscape="http://www.inkscape.org/namespaces/inkscape" xmlns:rdf="http://www.w3.org/1999/02/22-rdf-syntax-ns#" xmlns="http://www.w3.org/2000/svg" inkscape:version="0.91 r13725" height="95.14mm" width="84.77mm" version="1.1" xmlns:cc="http://creativecommons.org/ns#" xmlns:dc="http://purl.org/dc/elements/1.1/" sodipodi:docname="SIL International logo (2014).svg" viewBox="0 0 300.34257 337.10427" xmlns:sodipodi="http://sodipodi.sourceforge.net/DTD/sodipodi-0.dtd">
<sodipodi:namedview bordercolor="#666666" inkscape:pageshadow="2" inkscape:window-y="-8" fit-margin-left="0" pagecolor="#ffffff" inkscape:zoom="3.959798" inkscape:window-maximized="1" inkscape:window-x="-8" showgrid="false" borderopacity="1.0" inkscape:current-layer="g6" inkscape:cx="77.582356" inkscape:cy="292.40987" inkscape:pageopacity="0.0" fit-margin-right="0.1" fit-margin-bottom="0" inkscape:window-height="715" fit-margin-top="0" inkscape:window-width="1366" inkscape:document-units="px"/>
<g inkscape:label="Layer 1" transform="translate(-387 -1195)" inkscape:groupmode="layer">
<rect height="337.1" width="300" y="1195" x="387" fill="#fff"/>
<path d="m387 1490v-42.12h42.82c46.4 0 45.98 0.013 52.12-1.535 10.89-2.743 19.24-8.686 24.3-17.29 4.949-8.422 6.449-19.72 3.935-29.64-2.756-10.86-10.04-19.73-22.48-27.35-13.34-8.179-16.72-11.36-17.85-16.79-0.7561-5.637 0.3964-10.22 5.018-13.26 5.864-3.748 17.44-3.497 25.38 0.5512 0.775 0.3954 1.378 0.5666 1.429 0.2975l4.51-23.72c0.1226-0.6445-6.821-2.476-11.94-3.534-16.42-3.002-32.72-1.334-43.94 9.644-4.165 4.142-6.439 7.752-8.337 13.23-2.093 7.519-3.067 15.48-1.262 22.03 1.947 7.01 5.66 13.12 11.42 18.78 7.577 7.345 13.52 9.291 21.58 16.02 4.778 4.063 6.923 8.077 7.292 13.65 0.4639 7.003-2.953 11-11 12.87-2.491 0.5785-3.112 0.5884-42.77 0.6799l-40.24 0.093v-113.8-113.8h150 150v113.8 113.6h-74.88c-0.2962-35 0.2962-69.93 0-104.9h-26.73v130.8h101.6v41.99 41.84h-150-150zm171.2-42.2c0.1766-45.86 0.0572-81-0.001-130.3h-25.56v130.8h25.56z" sodipodi:nodetypes="ccsssssccsssccccccsssccccccccccccccccccccccc" inkscape:connector-curvature="0" fill="#0068a6"/>
</g>
</svg>
